#!OML:ASF F:\VICON\USERDATA\INSTALL\rory3\rory3.ASF
:FULLY-SPECIFIED
:DEGREES
1880
root -0.845195 18.6219 -4.17334 -15.0142 73.0332 -25.1672
lowerback 15.987 -3.1613 -5.13513
upperback 4.84179 -4.9095 -4.86417
thorax -3.77355 -2.28027 -1.32303
lowerneck -10.6672 8.12789 -3.35665
upperneck 22.9833 12.7055 -1.35909
head 8.83339 5.60073 1.43939
rclavicle 4.13472e-014 -1.90833e-014
rhumerus 0.735118 35.4562 -88.7205
rradius 109.699
rwrist -9.77973
rhand -48.7188 -5.25205
rfingers 7.12502
rthumb -21.3589 325.905
lclavicle 4.13472e-014 -1.90833e-014
lhumerus 11.3425 -12.3971 85.4426
lradius 26.0583
lwrist -15.7264
lhand -22.2883 6.14991
lfingers 7.12502
lthumb 4.13034 36.0896
rfemur -32.929 23.2549 10.2856
rtibia 40.8714
rfoot -10.5846 -8.48833
rtoes -3.37647
lfemur -25.7961 4.36568 -16.482
ltibia 36.8754
lfoot -18.74 10.6716
ltoes 2.7375
1881
root -0.80909 18.6427 -4.1952 -14.8723 72.9197 -25.1096
lowerback 16.0106 -3.08344 -5.11796
upperback 4.80902 -4.81128 -4.89998
thorax -3.82656 -2.2306 -1.38615
lowerneck -10.8164 8.07038 -3.4293
upperneck 23.112 12.6724 -1.40485
head 8.90496 5.56677 1.44503
rclavicle 2.70347e-014 6.04305e-014
rhumerus 0.415226 34.4088 -89.0306
rradius 109.062
rwrist -11.513
rhand -48.213 -4.82838
rfingers 7.12502
rthumb -20.873 326.275
lclavicle 2.70347e-014 6.04305e-014
lhumerus 10.6321 -11.867 85.402
lradius 26.0753
lwrist -16.6341
lhand -23.1546 5.28063
lfingers 7.12502
lthumb 3.29381 35.2349
rfemur -33.1571 23.2073 10.3208
rtibia 40.4164
rfoot -10.7115 -8.69036
rtoes -3.62617
lfemur -25.6256 4.24069 -16.5329
ltibia 36.65
lfoot -19.2506 10.769
ltoes 4.11145
1882
root -0.768778 18.6404 -4.20869 -14.7779 72.689 -25.115
lowerback 15.9386 -2.92198 -5.02551
upperback 4.77308 -4.58605 -4.93443
thorax -3.83865 -2.12058 -1.5178
lowerneck -10.8693 7.97536 -3.52586
upperneck 23.1461 12.5653 -1.39908
head 8.92121 5.50796 1.45496
rclavicle 2.22639e-014 5.40694e-014
rhumerus -0.0683111 33.2239 -89.3443
rradius 108.543
rwrist -13.3692
rhand -47.3653 -3.75249
rfingers 7.12502
rthumb -20.0584 327.263
lclavicle 2.22639e-014 5.40694e-014
lhumerus 9.75148 -12.1196 85.1615
lradius 26.4849
lwrist -16.2035
lhand -23.7331 5.24606
lfingers 7.12502
lthumb 2.73508 35.2083
rfemur -33.2866 23.2995 10.368
rtibia 39.7549
rfoot -10.9596 -8.96756
rtoes -3.55892
lfemur -25.4953 4.29957 -16.5309
ltibia 36.4953
lfoot -19.5584 10.9776
ltoes 4.24644
1883
root -0.72796 18.6417 -4.22513 -14.3383 72.4325 -24.7253
lowerback 15.9031 -2.74378 -5.07499
upperback 4.73531 -4.36158 -4.92797
thorax -3.85642 -2.01033 -1.52557
lowerneck -11.0306 7.91069 -3.7729
upperneck 23.2954 12.5302 -1.32027
head 8.9819 5.47157 1.52846
rclavicle -2.8625e-014 3.49861e-014
rhumerus -0.538662 32.4146 -89.3894
rradius 108.287
rwrist -15.0561
rhand -46.4799 -3.1902
rfingers 7.12502
rthumb -19.2073 327.738
lclavicle -2.8625e-014 3.49861e-014
lhumerus 8.81364 -12.6705 84.8768
lradius 27.1327
lwrist -14.9871
lhand -23.3139 6.62925
lfingers 7.12502
lthumb 3.13992 36.5859
rfemur -33.3557 23.2788 10.3495
rtibia 39.0231
rfoot -11.1211 -9.35895
rtoes -3.58634
lfemur -25.3069 4.46853 -16.6675
ltibia 36.3426
lfoot -19.6041 11.1023
ltoes 4.21797
1884
root -0.685858 18.6433 -4.24246 -13.5295 72.2009 -23.9728
lowerback 15.7708 -2.54573 -5.26322
upperback 4.70734 -4.12295 -4.93414
thorax -3.8026 -1.89386 -1.47635
lowerneck -10.9303 7.90145 -3.77055
upperneck 23.1865 12.5545 -1.5315
head 8.94244 5.46736 1.45321
rclavicle -4.45278e-014 4.13472e-014
rhumerus -0.982471 31.7824 -89.2721
rradius 108.232
rwrist -16.3632
rhand -46.0857 -3.33919
rfingers 7.12502
rthumb -18.8281 327.552
lclavicle -4.45278e-014 4.13472e-014
lhumerus 7.88769 -13.0714 84.7366
lradius 27.815
lwrist -14.0585
lhand -22.8242 8.45653
lfingers 7.12502
lthumb 3.61288 38.4057
rfemur -33.388 23.1875 10.2049
rtibia 38.1405
rfoot -11.1588 -9.66
rtoes -3.07615
lfemur -25.159 4.59542 -16.927
ltibia 36.2401
lfoot -19.078 11.5014
ltoes 0.765213
1885
root -0.642607 18.6446 -4.25978 -12.612 71.9755 -23.1914
lowerback 15.6459 -2.34099 -5.3878
upperback 4.59485 -3.87739 -4.97925
thorax -3.85133 -1.7724 -1.50196
lowerneck -10.8095 7.87358 -3.72249
upperneck 23.1455 12.5317 -1.66326
head 8.91975 5.4521 1.39344
rclavicle 3.97569e-014 4.13472e-014
rhumerus -1.60451 31.1373 -89.2268
rradius 108.414
rwrist -17.6473
rhand -45.9875 -3.36461
rfingers 7.12502
rthumb -18.7337 327.517
lclavicle 3.97569e-014 4.13472e-014
lhumerus 6.85068 -13.4478 84.6698
lradius 28.5649
lwrist -13.597
lhand -23.1501 8.28112
lfingers 7.12502
lthumb 3.2981 38.2354
rfemur -33.526 23.0502 10.0061
rtibia 37.2695
rfoot -11.1944 -9.89154
rtoes -2.41412
lfemur -25.0751 4.68146 -17.2092
ltibia 36.08
lfoot -18.7624 11.8895
ltoes -1.88912
1886
root -0.599069 18.6496 -4.2748 -11.9001 71.7569 -22.5529
lowerback 15.5536 -2.15181 -5.52195
upperback 4.52681 -3.64968 -4.98469
thorax -3.86727 -1.66024 -1.47643
lowerneck -10.827 7.8657 -3.91494
upperneck 23.2157 12.5338 -1.51919
head 8.9242 5.45081 1.47299
rclavicle -4.77083e-014 0
rhumerus -2.24832 30.5631 -89.1817
rradius 108.788
rwrist -19.0479
rhand -45.6953 -3.60655
rfingers 7.12502
rthumb -18.4526 327.249
lclavicle -4.77083e-014 0
lhumerus 5.77872 -13.7036 84.6348
lradius 29.4973
lwrist -13.5875
lhand -24.0122 6.03657
lfingers 7.12502
lthumb 2.46561 36.0021
rfemur -33.566 22.8557 9.91852
rtibia 36.3944
rfoot -11.1589 -10.1055
rtoes -2.38692
lfemur -24.8905 4.74422 -17.4589
ltibia 35.8786
lfoot -18.9064 12.1575
ltoes -2.09696
1887
root -0.552366 18.6526 -4.29042 -11.4045 71.4824 -22.0059
lowerback 15.4994 -1.89833 -5.64149
upperback 4.50837 -3.332 -4.97336
thorax -3.85269 -1.50423 -1.45695
lowerneck -10.7203 7.82134 -3.86181
upperneck 23.2236 12.4874 -1.62817
head 8.91985 5.42552 1.41998
rclavicle 4.13472e-014 2.54444e-014
rhumerus -2.9615 29.8525 -89.0866
rradius 109.414
rwrist -20.4575
rhand -45.137 -4.37246
rfingers 7.12502
rthumb -17.9155 326.433
lclavicle 4.13472e-014 2.54444e-014
lhumerus 4.59693 -14.0421 84.6892
lradius 30.6682
lwrist -13.4787
lhand -24.7408 4.76901
lfingers 7.12502
lthumb 1.76189 34.7415
rfemur -33.4498 22.658 9.96475
rtibia 35.5309
rfoot -11.083 -10.2712
rtoes -3.36617
lfemur -24.5253 4.76827 -17.664
ltibia 35.6308
lfoot -19.0288 12.541
ltoes -2.41245
1888
root -0.50677 18.6551 -4.30899 -10.8173 71.2441 -21.354
lowerback 15.4992 -1.57883 -5.77051
upperback 4.45089 -2.93735 -4.93868
thorax -3.9091 -1.30905 -1.41919
lowerneck -10.4435 7.70378 -3.70106
upperneck 23.1708 12.3498 -1.91525
head 8.88436 5.35517 1.27321
rclavicle -8.26944e-014 -5.40694e-014
rhumerus -3.80957 28.9592 -88.8185
rradius 110.299
rwrist -21.908
rhand -44.3064 -4.61454
rfingers 7.12502
rthumb -17.1162 326.119
lclavicle -8.26944e-014 -5.40694e-014
lhumerus 3.22942 -14.4566 84.9531
lradius 32.0612
lwrist -13.0999
lhand -24.9827 4.79204
lfingers 7.12502
lthumb 1.52831 34.7663
rfemur -33.3624 22.4448 9.95511
rtibia 34.7284
rfoot -10.8996 -10.4907
rtoes -4.16638
lfemur -24.1243 4.80925 -17.9133
ltibia 35.2958
lfoot -19.1557 12.7333
ltoes -2.01331
